# xmcd CD database file
#
# Track frame offsets:
#	187
#	31150
#	47415
#	68497
#	92382
#	116132
#	130005
#	150475
#	170935
#	189497
#
# Disc length: 3071 seconds
#
# Revision: 2
# Processed by: cddbd v1.5.1PL2 Copyright (c) Steve Scherf et al.
# Submitted via: CDex 1.60beta1-cs1
#
DISCID=760bfd0a
DTITLE=Chet Baker - Chet
DYEAR=1959
DGENRE=Jazz
TTITLE0=Alone Together
TTITLE1=How High The Moon
TTITLE2=It Never Entered My Mind
TTITLE3='tis Autumn
TTITLE4=If You Could See Me Now
TTITLE5=September Song
TTITLE6=You'd Be So Nice To Come Home To
TTITLE7=Time On My Hands (You In My Arms)
TTITLE8=You And The Night And The Music
TTITLE9=Early Morning Mood
EXTD=YEAR: 1959
EXTT0=
EXTT1=
EXTT2=
EXTT3=
EXTT4=
EXTT5=
EXTT6=
EXTT7=
EXTT8=
EXTT9=
PLAYORDER=
